<?xml version="1.0" encoding="UTF-8"?>
<svg width="46px" height="39px" viewBox="0 0 46 39" version="1.1" xmlns="http://www.w3.org/2000/svg" xmlns:xlink="http://www.w3.org/1999/xlink">
    <!-- Generator: Sketch 51.1 (57501) - http://www.bohemiancoding.com/sketch -->
    <title>Group 3</title>
    <desc>Created with Sketch.</desc>
    <defs></defs>
    <g id="Page-1" stroke="none" stroke-width="1" fill="none" fill-rule="evenodd" opacity="0.99071558">
        <g id="Pumpkins-wireframe" transform="translate(-892.000000, -491.000000)" fill="#FC722C">
            <g id="Map-nav" transform="translate(18.000000, 491.000000)">
                <g id="Page-1" transform="translate(897.000000, 19.500000) rotate(-360.000000) translate(-897.000000, -19.500000) translate(874.000000, 0.000000)">
                    <g id="Group-3">
                        <path d="M29,11.9996923 C29,9.57394764 27.5387507,7.38484655 25.2958753,6.4560651 C23.053593,5.52906293 20.4726851,6.04090098 18.758801,7.75790116 C17.0419516,9.47430825 16.5277864,12.0530705 17.4570793,14.2955499 C18.3857791,16.5386223 20.5723158,18 23.0002194,18 C24.5919374,18 26.1160489,17.3677644 27.2422309,16.2420765 C28.3678199,15.1181679 29,13.5915501 29,11.9996923 Z M19.9425078,11.9996923 C19.9425078,10.7577585 20.6885515,9.64156009 21.8348968,9.16649371 C22.9818352,8.69142734 24.3025342,8.95298074 25.1802326,9.8313494 C26.056152,10.7067526 26.3200545,12.0275676 25.8450299,13.1746067 C25.3700053,14.3210528 24.2515328,15.0695344 23.0097081,15.0695344 C22.1966509,15.0695344 21.4156179,14.7451133 20.8415557,14.1704075 C20.2645283,13.5939225 19.9425078,12.8128209 19.9425078,11.9996923 Z" id="Fill-1"></path>
                        <path d="M45.7589616,32.2783552 L38.3911204,20.7328553 C37.9795469,20.0732173 37.1312515,19.8321252 36.4313924,20.1784657 L31.7114842,22.4969891 L30.7625956,22.0931291 C33.0265568,18.7349723 35.0371947,14.8340521 35.0371947,11.5566672 L35.0371947,11.5591149 C35.0371947,7.4287288 32.8278238,3.61408781 29.2432697,1.54889477 C25.659329,-0.516298258 21.2405871,-0.516298258 17.6566464,1.54889477 C14.0720923,3.61408781 11.8627214,7.4287288 11.8627214,11.5591149 C11.8627214,14.7361466 13.6813735,18.4241225 15.8042588,21.6415402 L13.1974219,22.5281964 L7.72981147,20.1784657 C7.36546767,20.0065193 6.94653365,19.9875501 6.56808227,20.1233939 C6.18901751,20.2598496 5.87987733,20.5419397 5.7075194,20.9054137 L0.139315781,32.4790614 C-0.0305886478,32.8468187 -0.0453096091,33.2678121 0.0963796436,33.64536 C0.237455523,34.0253555 0.527581136,34.33131 0.898672036,34.4965255 L11.0052254,38.872899 L11.0052254,38.8704514 C11.3235662,39.0111904 11.6805495,39.0356668 12.0136112,38.9420447 L23.8192088,35.5649187 L34.7832581,38.9328661 C35.1469886,39.0448454 35.5426144,39.0160857 35.8848768,38.8514822 L45.102652,34.4744968 C45.505025,34.2952074 45.8092582,33.9488669 45.9362265,33.5260377 C46.0631948,33.1050443 45.9987906,32.6485602 45.7589616,32.2783552 Z M23.454865,3.04011712 C28.1747733,3.04501239 31.9991563,6.85965339 32.0034499,11.5689054 C32.0034499,16.0646012 26.5573076,23.0734074 23.4425976,26.5417079 C20.330341,23.1137934 14.8940126,16.1674019 14.8940126,11.5689054 C14.9007598,6.85781766 18.7325033,3.04011712 23.454865,3.04011712 Z M22.3741011,29.8184808 C22.6593197,30.1079138 23.0475851,30.2700697 23.454865,30.2700697 C23.862145,30.2676221 24.2528638,30.1005709 24.5356289,29.8062426 C26.0972776,28.162043 27.5687603,26.4315643 28.94149,24.6245968 L31.0643753,25.5210436 L33.6613982,35.4407011 L24.4442363,32.6173528 L24.4442363,32.1229303 L24.4442363,32.1272137 C24.4442363,31.5703764 23.9940202,31.1187875 23.4358505,31.1187875 C22.8770673,31.1187875 22.4243977,31.5703764 22.4243977,32.1272137 L22.4243977,32.8639522 L12.842892,35.6053047 L13.9739526,25.5228793 L17.6229109,24.2109463 C19.0919401,26.1757863 20.6775103,28.047616 22.3741011,29.8184808 Z M7.85187277,23.5152057 L11.985396,25.3197255 L10.8328674,35.5147421 L3.55580556,32.3787083 L7.85187277,23.5152057 Z M35.796551,35.6150952 L33.0866674,25.2193724 L36.5534537,23.5152057 L42.2848147,32.5194474 L35.796551,35.6150952 Z" id="Fill-2"></path>
                    </g>
                </g>
            </g>
        </g>
    </g>
</svg>